# xmcd
#
# Track frame offsets:
#	150
#	17272
#	38282
#	56307
#	72703
#	94929
#	117169
#	140249
#	154202
#	170459
#	188349
#	209148
#	228752
#	244336
#
# Disc length: 3532 seconds
#
# Revision: 2
# Processed by: cddbd v1.5.2PL0 Copyright (c) Steve Scherf et al.
# Submitted via: EasyCDDAExtractor 15.3.0.1
#
DISCID=ba0dca0e
DTITLE=Marcos Llunas - Vida
DYEAR=1996
DGENRE=Latin
TTITLE0=Te Amo
TTITLE1=Tu
TTITLE2=Vida
TTITLE3=Perdido Estoy
TTITLE4=Haz Como Yo
TTITLE5=Me Mata Tu Ausencia
TTITLE6=Otra Oportunidad
TTITLE7=Eres Mi Debilidad
TTITLE8=Esperare
TTITLE9=A Quien No Le Gusta
TTITLE10=Esa Maldita Obsesion
TTITLE11=Un Poco De Suerte
TTITLE12=Como Sal Y Arena
TTITLE13=Sentir
EXTD=
EXTT0=
EXTT1=
EXTT2=
EXTT3=
EXTT4=
EXTT5=
EXTT6=
EXTT7=
EXTT8=
EXTT9=
EXTT10=
EXTT11=
EXTT12=
EXTT13=
PLAYORDER=
